<?xml version="1.0" standalone="no"?>
<!DOCTYPE svg PUBLIC "-//W3C//DTD SVG 20010904//EN"
 "http://www.w3.org/TR/2001/REC-SVG-20010904/DTD/svg10.dtd">
<svg version="1.0" xmlns="http://www.w3.org/2000/svg"
 width="700.000000pt" height="700.000000pt" viewBox="0 0 700.000000 700.000000"
 preserveAspectRatio="xMidYMid meet">
<metadata>
Created by potrace 1.11, written by Peter Selinger 2001-2013
</metadata>
<g transform="translate(0.000000,700.000000) scale(0.100000,-0.100000)"
fill="#000000" stroke="none">
<path d="M2423 5855 c-22 -9 -114 -116 -315 -366 -156 -195 -288 -360 -295
-369 -10 -13 -41 14 -205 176 -106 106 -207 199 -225 208 -109 55 -243 -25
-243 -146 0 -27 6 -61 14 -76 22 -41 567 -580 599 -592 16 -5 43 -10 61 -10
76 0 97 22 478 499 l362 454 4 61 c3 51 0 66 -20 96 -50 74 -135 100 -215 65z"/>
<path d="M3127 5349 c-97 -23 -150 -109 -125 -206 11 -46 69 -108 110 -118 13
-3 613 -4 1335 -3 l1312 3 28 21 c73 54 95 147 52 223 -28 49 -58 69 -120 81
-66 13 -2539 12 -2592 -1z"/>
<path d="M2413 4160 c-18 -10 -159 -178 -314 -372 -155 -194 -286 -357 -290
-362 -6 -6 -91 71 -211 191 -171 170 -210 203 -245 212 -46 13 -106 2 -148
-25 -56 -37 -83 -150 -51 -212 8 -15 142 -154 298 -309 273 -271 285 -281 330
-288 61 -9 106 6 150 53 54 57 686 847 710 887 26 45 22 137 -7 177 -49 65
-156 89 -222 48z"/>
<path d="M3105 3655 c-80 -28 -126 -115 -105 -195 14 -53 63 -107 108 -120 26
-8 446 -10 1344 -8 l1307 3 28 21 c49 36 73 82 73 136 0 66 -24 114 -73 146
l-41 27 -1300 2 c-1103 2 -1307 0 -1341 -12z"/>
<path d="M1219 2627 c-52 -35 -79 -82 -79 -139 0 -27 5 -59 11 -71 6 -12 104
-115 217 -229 l207 -208 -207 -207 c-113 -115 -211 -218 -217 -230 -16 -32
-13 -110 6 -150 19 -41 76 -82 127 -90 73 -12 106 12 326 232 l205 205 215
-214 c207 -206 217 -215 262 -221 39 -6 56 -3 95 16 80 40 115 116 93 199 -10
38 -39 71 -221 249 l-210 204 210 211 c170 172 211 219 221 253 23 75 -11 158
-80 194 -39 21 -119 25 -153 8 -12 -6 -115 -104 -229 -217 l-208 -207 -207
207 c-115 113 -218 211 -230 217 -38 19 -116 13 -154 -12z"/>
<path d="M3094 1961 c-76 -35 -115 -114 -93 -193 13 -52 73 -112 119 -122 18
-3 611 -6 1319 -6 l1287 0 44 23 c67 33 93 78 88 152 -5 74 -33 119 -92 146
-39 18 -94 19 -1336 19 -1239 0 -1297 -1 -1336 -19z"/>
</g>
</svg>
